<?xml version="1.0" encoding="utf-8"?>
<!-- Generator: Adobe Illustrator 26.0.0, SVG Export Plug-In . SVG Version: 6.00 Build 0)  -->
<svg version="1.1" id="Layer_1" xmlns="http://www.w3.org/2000/svg" xmlns:xlink="http://www.w3.org/1999/xlink" x="0px" y="0px"
	 viewBox="0 0 283.5 218.3" style="enable-background:new 0 0 283.5 218.3;" xml:space="preserve">
<style type="text/css">
	.st0{fill:#FFD100;}
</style>
<g>
	<g>
		<path d="M36.1,29.8c0.8,0,1.6,1.9,2.5,5.7c1.2,3.2,4.6,14.2,10.3,33.1h0.2c5.5-18.3,9.5-31,11.9-38.3l0.9-0.5h14.6
			c0.7,0.3,1.1,0.8,1.1,1.7v66.6c0,0.9-0.4,1.4-1.1,1.7H62.7c-1,0-1.6-0.5-1.6-1.5V79.1H61c-1.4,5.7-3.3,12.5-5.6,20.2l-0.9,0.5
			H44.4c-1.1,0-1.9-1-2.2-2.9c-3.3-11.6-4.9-17.6-4.9-18H37v4.5c0,4.3-0.1,9.6-0.2,15.9l-0.9,0.5H21.9c-1,0-1.6-0.4-1.6-1.2V31
			c0-0.8,0.5-1.2,1.6-1.2H36.1z"/>
		<path d="M118,29.8c0.2,0,0.5,0.2,0.9,0.7V42c0,0.2-0.3,0.4-0.9,0.7H99.9v15.7h15.4c0.3,0,0.6,0.2,0.9,0.7v11.4
			c0,0.2-0.3,0.4-0.9,0.7H99.9v15.7H118c0.2,0,0.5,0.2,0.9,0.7v11.6c0,0.1-0.3,0.4-0.9,0.7H84.4c-1,0-1.6-0.5-1.6-1.5V31.4
			c0-1.1,0.5-1.6,1.6-1.6H118z"/>
		<path d="M143.4,27.4c8.4,0,14,3,16.8,9c0.9,1.9,1.4,4.5,1.4,7.8v9.5c0,0.2-0.3,0.4-0.9,0.7h-14.8c-0.3,0-0.6-0.2-0.9-0.7V44
			c0-2.3-0.8-3.4-2.5-3.4h-1.1c-1.7,0-2.5,1.4-2.5,4.3v39.7c0,2.7,0.9,4.1,2.7,4.1h0.6c1.8,0,2.7-1.2,2.7-3.5V71h-3.8
			c-0.6-0.1-0.9-0.7-0.9-1.5v-10c0-1.1,0.5-1.6,1.6-1.6H160c1,0,1.6,0.4,1.6,1.2V85c0,11.1-6.3,16.7-19,16.7h-0.7
			c-9,0-14.9-2.7-17.7-8.1c-1.2-2-1.8-5.4-1.8-10V45.2c0-8.8,3.2-14.3,9.6-16.4c3.2-0.9,6.1-1.4,8.5-1.4H143.4z"/>
		<path d="M197.4,35.8c-0.5-4-1.1-6-1.8-6h-19.2l-0.5,0.2c-0.4,0.6-1,2.7-1.7,6.4c-5.4,26.7-9.2,47.6-11.4,62.8
			c0.4,0.5,0.7,0.7,0.9,0.7h14.6c0.4,0,0.7-0.1,0.9-0.2c0.6,0,1.6-4.7,2.9-13.9h7.6c0.3,0,0.8,2.2,1.6,6.6c0.5,5,1.2,7.6,2,7.6h15
			c0.4-0.1,0.8-0.5,1.1-1.2C206.6,81.7,202.7,60.8,197.4,35.8 M182.5,73.6c2-10,3-16.4,3.2-19.1h0.2c0.7,4.9,1.7,11.3,3.2,19.1
			H182.5z"/>
	</g>
	<g>
		<path class="st0" d="M236.2,52.3L225,26.2l-17.8-5.3l5.9,44.8l10.9,0.5c0,0-0.7-11-1.2-19c3.4,7.8,8,19,8,19l10.8,0
			c0,0,4.5-11.2,8-18.9c-0.6,8-1.4,18.9-1.4,18.9l10.4-0.5l4-28.1l-17.8-5.4L236.2,52.3z"/>
		<path class="st0" d="M235.5,91.1v9.1c-5.8,0-8.7-0.1-14.5-2.6c-3.4-1.5-5-4.8-5.5-8.4l-2.4-17.3c-0.4-3,1.2-4.1,5.2-3.8l16.9,1
			v7.2c-5.4,0-7.9,0.1-13.4-0.6c-0.9-0.1-1.3,0.2-1.2,0.9c0.4,4.6,0.6,6.1,1,11.5c0.1,0.9,0.5,1.4,1.3,1.7c2.5,0.6,3.7,0.8,6.1,1
			L235.5,91.1z"/>
		<path class="st0" d="M265.8,25.7l-2.7-0.8c0.1-0.2,0.2-0.3,0.2-0.5l0.8-2.7c0.2-0.9-0.3-1.9-1.2-2.1L217.6,3
			c-0.9-0.2-1.9,0.3-2.2,1.2l-1.6,5.9l-4.4-1.3c-1-0.3-2,0.2-2.3,1.2l-2.9,6.5L265.9,35l1.1-7C267.3,27,266.7,26,265.8,25.7"/>
		<path class="st0" d="M252.4,68.5c4.7,0.5,4.8,6,4.8,6s-1.9,15.5-2.1,16.8s-0.7,3.5-3.3,5.4c-2.6,1.9-5.7,2.4-5.7,2.4
			s-4.4,0.7-6.8,1.1c-2.4,0.3-2.1-1.8-2.1-1.8s0.2-25.9,0.2-27.6s1.2-1.6,1.2-1.6L252.4,68.5z M243,91.3c0,0,4.4-0.8,5.8-1.5
			c1.4-0.7,1.7-2.8,1.7-2.8s0.9-7.7,1.2-9.7s-1.7-1.8-1.7-1.8s0.2,0-1.8,0.2c-2,0.2-4.2,0.2-5.4,0.2c-1.2,0-1,1-1,1V90
			C241.8,91.6,243,91.3,243,91.3z"/>
	</g>
	<g>
		<path d="M94.8,125.5c-3-7.1-9.5-10.7-19.5-10.7c-3.2,0-6,0.3-8.4,1c-8.7,3-13.1,9.4-13.1,19.2v61.5c0,2.6,0.4,5.1,1.2,7.6
			c2.9,8.4,9.2,12.7,19,12.7h1.4c5.9,0,10.3-1.2,13.2-3.4c5.4-3.1,8-9.7,8-19.8v-55.6C96.8,132,96.1,127.9,94.8,125.5 M79.7,192.6
			c0,4.7-1.2,7-3.6,7h-1.2c-2.6,0-3.9-1.7-3.9-5.1V137c0-3.2,1.5-5,4.4-5.4c2.9,0,4.4,2.5,4.4,7.3V192.6z"/>
		<path d="M47.2,137.4v13.7c0,0.3-0.3,0.6-1,1H29.9c-0.2,0-0.5-0.3-0.9-1v-11.9c0-4.1-1-6.1-3-6.1h-0.7c-1.8,0-2.7,1.5-2.7,4.4V194
			c0,2.9,1,4.4,2.9,4.4H26c2,0,3-2,3-6.1v-11.9c0-0.2,0.3-0.6,0.9-1h16.3c0.3,0,0.6,0.4,1,1V194c0,15.1-7,22.7-21,22.7H25
			c-9.3,0-15.5-3.5-18.8-10.5c-1.3-3.1-2-6.2-2-9.5v-62c0-9.6,4.3-15.9,13-19c2.6-0.6,5.5-1,8.5-1C40.1,114.7,47.2,122.3,47.2,137.4
			"/>
		<path d="M168.1,216.7h3.3c0.5,0,0.8-0.7,0.8-2.2v-94.6c0-1.5-0.3-2.2-0.8-2.2h-3.5h-4.6h-7.4c-1.2,0-1.7,0.8-1.7,2.2v94.6
			c0,1.5,0.6,2.2,1.7,2.2h7H168.1z"/>
		<path d="M122,195.9 M126,201 M122,200.2v-4.3v-61.8c0-1,1.3-1.1,1.3-1.1h3.1c2.9,0,4.4,2.5,4.4,7.3V194c0,4.7-1.2,7-3.6,7H126
			h-3.2C122.2,201,122,200.2,122,200.2z M108,216.7h17.2h1.4c5.9,0,10.3-1.2,13.2-3.4c5.4-3.1,8-9.7,8-19.8v-52.7
			c0-10.1-2.6-16.7-8-19.8c-2.9-2.2-7.3-3.4-13.2-3.4h-1.4H108c0,0-3.9-0.2-3.9,5.1v89.7C104.1,212.4,103.6,216.7,108,216.7z"/>
		<path d="M261.6,176.2v17.6c0,4.1-1,6.1-3,6.1h-0.5c-1.9,0-2.9-1.5-2.9-4.4v-56.6c0-2.9,0.9-4.4,2.7-4.4h0.7c2,0,3,2,3,6.1v11.9
			c0.4,0.6,0.7,1,0.9,1h16.3c0.7-0.4,1-0.7,1-1v-13.7c0-15.1-7.2-22.7-21.5-22.7c-3,0-5.9,0.3-8.5,1c-8.7,3.1-13,9.4-13,19v62
			c0,3.3,0.6,6.4,2,9.5c3.2,7,9.5,10.5,18.8,10.5h1.2c14,0,21-7.5,21-22.7v-13.6v-21.4l-2.5-2.5h-20.7v18.3h4.6H261.6z"/>
		<g>
			<path d="M229.5,201v-81.1c0-1.5-0.3-2.2-0.8-2.2h-3.5h-4.6h-7.4c-1.2,0-1.7,0.8-1.7,2.2v94.6c0,1.5,0.6,2.2,1.7,2.2h7h5.2h3.3
				c0.5,0,0.8-0.7,0.8-2.2V201"/>
			<path d="M224.2,196.5l-25.5-77c-0.5-1.4-1-2-1.5-1.9l-3.3,1.1l-4.3,1.4l-7,2.3c-1.1,0.4-1.4,1.3-0.9,2.7l29.7,89.8
				c0.5,1.4,1.2,1.9,2.3,1.5l6.6-2.2l4.9-1.6l3.1-1c0.5-0.2,0.6-0.9,0.1-2.4L224.2,196.5"/>
			<path d="M197.8,119.9c0-1.5-0.3-2.2-0.8-2.2"/>
			<path d="M197,117.7h-3.5h-4.6h-7.4c-1.2,0-1.7,0.8-1.7,2.2v94.6c0,1.5,0.6,2.2,1.7,2.2h7h5.2h3.3c0.5,0,0.8-0.7,0.8-2.2v-94.6"/>
		</g>
	</g>
</g>
</svg>
