<?xml version="1.0" encoding="utf-8"?>
<!-- Generator: Adobe Illustrator 26.0.0, SVG Export Plug-In . SVG Version: 6.00 Build 0)  -->
<svg version="1.1" id="Layer_1" xmlns="http://www.w3.org/2000/svg" xmlns:xlink="http://www.w3.org/1999/xlink" x="0px" y="0px"
	 viewBox="0 0 129.2 197" style="enable-background:new 0 0 129.2 197;" xml:space="preserve">
<style type="text/css">
	.st0{fill:#FFD100;}
</style>
<g>
	<path class="st0" d="M65.6,99.8L43.2,47.7L7.6,37.1l11.8,89.6l21.7,0.9c0,0-1.4-21.9-2.3-38.1c6.9,15.5,15.9,38,15.9,38l21.7,0
		c0,0,9-22.4,15.9-37.7c-1.2,16.1-2.7,37.8-2.7,37.8l20.9-1.1l8.1-56.2L82.9,59.6L65.6,99.8z"/>
	<path class="st0" d="M64.3,177.5v18.2c-11.7,0-17.4-0.1-28.9-5.1c-6.8-2.9-10-9.6-11-16.9L19.7,139c-0.8-6,2.4-8.2,10.5-7.6l33.8,2
		v14.4c-10.9,0-15.8,0.2-26.8-1.1c-1.8-0.2-2.6,0.4-2.5,1.8c0.8,9.3,1.1,12.2,2,23c0.2,1.7,1,2.8,2.7,3.3c4.9,1.2,7.5,1.7,12.3,2
		L64.3,177.5z"/>
	<path class="st0" d="M124.8,46.7l-5.5-1.6c0.1-0.3,0.3-0.6,0.3-0.9l1.5-5.4c0.5-1.8-0.6-3.7-2.5-4.2L28.5,1.3
		c-1.9-0.5-3.7,0.6-4.3,2.5L21,15.6L12.3,13c-2-0.6-4,0.5-4.6,2.4l-5.7,13L125,65.3l2.3-14.1C127.9,49.3,126.7,47.3,124.8,46.7"/>
	<path class="st0" d="M98.1,132.3c9.3,1,9.7,12,9.7,12s-3.8,31.1-4.2,33.6c-0.4,2.6-1.4,7-6.6,10.7c-5.2,3.7-11.3,4.8-11.3,4.8
		s-8.8,1.5-13.6,2.2s-4.3-3.6-4.3-3.6s0.4-51.9,0.3-55.2c-0.1-3.3,2.4-3.2,2.4-3.2L98.1,132.3z M79.3,177.9c0,0,8.8-1.7,11.6-3.1
		s3.4-5.5,3.4-5.5s1.8-15.4,2.3-19.4s-3.4-3.6-3.4-3.6s0.4,0-3.6,0.4c-4,0.4-8.3,0.4-10.8,0.4s-2.1,1.9-2.1,1.9v26.2
		C76.8,178.4,79.3,177.9,79.3,177.9z"/>
</g>
</svg>
